:SAMPLES-PER-SECOND 30
:FULLY-SPECIFIED
:DEGREES
498
root  -47.0181 30.7843 -47.9994 -167.72 31.4713 175.216
RightUpLeg  -52.7478 -19.4763 -2.6105
RightLeg  46.4671 7.73397 7.06658
RightFoot  2.63263 -0.0228324 1.37082
RightToes  -44.4246 -0.254759 -0.338728
Spine  10.9495 1.97737 1.05811
Spine1  18.1365 6.19379 -3.22898
HEad  37.3084 1.5375 6.42495
LeftShoulder1  0 -2.42657e-020 -4.95415e-022
LeftArm  -22.2633 -10.231 -88.8637
LeftForeArm  -156.394 -24.1311 -4.10056
LeftHand  12.4186 -25.7155 -51.3516
RightShoulder  0 2.42657e-020 1.07489e-018
RightArm  -32.9179 34.004 85.5031
RightForeArm  74.6562 3.18493 0.488699
RightHand  1.1001 15.0944 8.66271
LeftUpLeg  -31.4765 2.9273 18.6747
LeftLeg  33.5625 -11.9752 -6.80275
LeftFoot  2.38295 0.0265768 -1.2778
LeftToes  -35.5176 1.18758e-006 1.19596e-007
499
root  -45.8188 31.4193 -47.2879 -166.914 28.2887 175.228
RightUpLeg  -50.2032 -16.2819 -2.12767
RightLeg  42.8341 3.42882 2.76007
RightFoot  2.68398 -0.0099442 0.801826
RightToes  -36.4274 -0.190591 -0.294065
Spine  10.6256 1.4312 1.10119
Spine1  17.7734 4.62099 -2.48427
HEad  39.4011 0.790554 7.22898
LeftShoulder1  0 -2.42657e-020 -4.95415e-022
LeftArm  -23.0349 -10.0131 -86.8521
LeftForeArm  -156.511 -25.4062 -4.36962
LeftHand  12.2149 -25.8263 -50.4177
RightShoulder  0 2.42657e-020 1.07489e-018
RightArm  -41.698 28.5727 82.9935
RightForeArm  77.2205 6.60938 1.086
RightHand  -0.090082 22.4664 -0.0835772
LeftUpLeg  -32.085 6.85613 15.6183
LeftLeg  34.972 -9.33611 -5.63538
LeftFoot  5.7822 0.0891003 -1.76416
LeftToes  -34.4075 1.18758e-006 1.19596e-007
500
root  -44.69 32.0969 -46.7111 -166.196 24.2916 175.619
RightUpLeg  -46.9065 -16.3913 -0.372358
RightLeg  37.9041 0.746328 0.488493
RightFoot  3.73862 0.000443078 0.363905
RightToes  -32.4355 -0.161047 -0.268532
Spine  9.94663 0.493166 1.25759
Spine1  16.9094 2.05674 -1.16622
HEad  41.1285 -0.0994582 7.93448
LeftShoulder1  0 -2.42657e-020 -4.95415e-022
LeftArm  -22.7652 -8.66503 -84.48
LeftForeArm  -160.565 -27.4234 -4.80718
LeftHand  12.5467 -26.3328 -50.7215
RightShoulder  0 2.42657e-020 1.07489e-018
RightArm  -33.7764 20.0327 80.0922
RightForeArm  60.7475 13.3992 2.3588
RightHand  -1.47464 25.1166 -6.24433
LeftUpLeg  -32.227 8.41762 12.439
LeftLeg  36.3676 -4.89497 -3.13854
LeftFoot  6.94145 0.0783279 -1.29143
LeftToes  -31.9251 1.18758e-006 1.19596e-007
501
root  -43.6052 32.7023 -46.2498 -165.956 20.6063 175.896
RightUpLeg  -43.2087 -19.0481 2.21254
RightLeg  31.9487 0.271379 0.134981
RightFoot  5.09934 0.0124817 0.0972338
RightToes  -30.2512 -0.145654 -0.253708
Spine  9.15122 -0.322497 1.23079
Spine1  15.8762 -0.192389 -0.0977752
HEad  42.1901 -0.939435 8.62981
LeftShoulder1  0 -2.42657e-020 -4.95415e-022
LeftArm  -23.9456 -6.48709 -82.0935
LeftForeArm  -163.229 -30.6069 -5.53255
LeftHand  12.8013 -27.1142 -50.2779
RightShoulder  0 2.42657e-020 1.07489e-018
RightArm  -34.1059 12.3148 77.7257
RightForeArm  47.4888 18.4865 3.35413
RightHand  -0.985481 24.6899 -4.13167
LeftUpLeg  -30.8633 10.2537 8.98171
LeftLeg  36.697 -0.790412 -0.518326
LeftFoot  6.99471 0.0375325 -0.614119
LeftToes  -30.5606 1.18758e-006 1.19596e-007
502
root  -42.5769 33.1783 -45.8534 -165.947 17.8096 175.931
RightUpLeg  -39.5337 -20.5361 4.19507
RightLeg  25.7905 -0.939652 -0.386616
RightFoot  6.62218 0.0335219 -0.201848
RightToes  -28.3358 -0.132631 -0.240235
Spine  8.20908 -0.860526 0.915903
Spine1  14.5992 -1.64497 0.193877
HEad  42.7574 -1.05402 9.29498
LeftShoulder1  0 -2.42657e-020 -4.95415e-022
LeftArm  -26.8186 -3.81161 -79.5612
LeftForeArm  -165.566 -33.9486 -6.34805
LeftHand  13.3317 -28.5868 -49.6629
RightShoulder  0 2.42657e-020 1.07489e-018
RightArm  -37.623 5.82857 76.3555
RightForeArm  40.0636 20.5671 3.77789
RightHand  0.115471 23.2974 0.930368
LeftUpLeg  -28.0081 13.0097 5.49519
LeftLeg  35.3697 2.28257 1.40389
LeftFoot  6.2392 0.00448874 -0.103537
LeftToes  -30.1018 1.18758e-006 1.19596e-007
503
root  -41.6497 33.5219 -45.5271 -165.96 15.1194 175.809
RightUpLeg  -36.1631 -21.4035 5.59722
RightLeg  20.0622 -2.63455 -0.775131
RightFoot  7.89751 0.0634467 -0.541526
RightToes  -25.7686 -0.115895 -0.221508
Spine  7.23207 -1.402 0.512632
Spine1  13.1897 -2.96376 0.123625
HEad  43.6058 -0.432289 9.80361
LeftShoulder1  0 -2.42657e-020 -4.95415e-022
LeftArm  -31.7613 -0.672282 -77.035
LeftForeArm  -168.255 -37.6311 -7.3262
LeftHand  13.2396 -30.4696 -46.5391
RightShoulder  0 2.42657e-020 1.07489e-018
RightArm  -40.7281 -0.223302 75.4052
RightForeArm  38.9815 20.7964 3.82541
RightHand  0.530486 23.8925 2.87768
LeftUpLeg  -24.4544 15.1401 2.27747
LeftLeg  32.8994 3.16475 1.76439
LeftFoot  3.96578 -0.000883628 -0.0429729
LeftToes  -27.4537 1.18758e-006 1.19596e-007
504
root  -40.793 33.728 -45.2394 -166.228 11.7159 175.958
RightUpLeg  -33.2939 -22.8588 6.99016
RightLeg  15.9327 -4.22421 -0.915392
RightFoot  8.31212 0.0863258 -0.810346
RightToes  -23.8333 -0.103842 -0.206906
Spine  6.49357 -2.08667 0.306672
Spine1  12.0929 -4.46616 0.256056
HEad  44.0862 0.175195 10.1348
LeftShoulder1  0 -2.42657e-020 -4.95415e-022
LeftArm  -37.418 2.89547 -74.5547
LeftForeArm  -168.262 -43.725 -9.18297
LeftHand  12.6606 -31.5782 -43.2204
RightShoulder  0 2.42657e-020 1.07489e-018
RightArm  -41.6138 -6.16612 74.221
RightForeArm  40.2524 20.7328 3.81108
RightHand  0.332652 23.7439 1.95281
LeftUpLeg  -20.6141 16.7087 -0.219059
LeftLeg  30.4619 2.70107 1.35869
LeftFoot  1.83793 0.00172882 -0.107789
LeftToes  -26.7979 1.18758e-006 1.19596e-007
505
root  -39.9521 33.8252 -44.9424 -166.541 7.80981 176.367
RightUpLeg  -31.1145 -24.1625 8.44896
RightLeg  13.1424 -6.15737 -1.02181
RightFoot  8.06896 0.101323 -1.05884
RightToes  -21.3933 -0.0893612 -0.187929
Spine  5.97102 -2.75862 0.220945
Spine1  11.2224 -6.05456 0.722035
HEad  43.9343 -0.189307 10.6365
LeftShoulder1  0 -2.42657e-020 -4.95415e-022
LeftArm  -43.2066 4.62263 -71.5576
LeftForeArm  -170.625 -47.5073 -10.5435
LeftHand  12.003 -32.8034 -39.6866
RightShoulder  0 2.42657e-020 1.07489e-018
RightArm  -43.1659 -11.8843 73.1078
RightForeArm  44.0973 20.4912 3.75734
RightHand  -0.0189358 23.5661 0.279311
LeftUpLeg  -16.7167 17.1333 -1.88176
LeftLeg  28.0536 3.27513 1.47915
LeftFoot  0.599563 0.00057798 -0.110475
LeftToes  -28.4972 1.18758e-006 1.19596e-007
506
root  -39.1796 33.855 -44.5722 -166.683 3.86658 176.651
RightUpLeg  -30.0378 -24.3712 9.53323
RightLeg  11.6148 -9.28811 -1.28485
RightFoot  7.55627 0.117732 -1.405
RightToes  -17.246 -0.0666442 -0.154319
Spine  5.67482 -3.22932 0.101518
Spine1  10.7058 -7.17728 0.969782
HEad  42.8265 -0.944724 11.5476
LeftShoulder1  0 -2.42657e-020 -4.95415e-022
LeftArm  -42.7614 4.36293 -67.1823
LeftForeArm  -167.384 -50.0342 -11.5637
LeftHand  11.7596 -33.0193 -38.6963
RightShoulder  0 2.42657e-020 1.07489e-018
RightArm  -46.0288 -17.016 72.5595
RightForeArm  47.3023 19.8796 3.62994
RightHand  -0.325538 23.6338 -1.18617
LeftUpLeg  -13.1948 16.1607 -3.34581
LeftLeg  25.6596 4.66811 1.87809
LeftFoot  -1.26501 -0.00231635 -0.209827
LeftToes  -23.8496 1.18758e-006 1.19596e-007
507
root  -38.4297 33.8349 -44.1083 -166.977 -0.172546 176.975
RightUpLeg  -29.7841 -25.5268 11.0973
RightLeg  10.8384 -11.7662 -1.46184
RightFoot  7.05105 0.12283 -1.61577
RightToes  -13.3943 -0.0477746 -0.121708
Spine  5.62418 -3.86865 -0.0197752
Spine1  10.5783 -8.59917 1.07858
HEad  41.6242 -1.19595 12.3478
LeftShoulder1  0 -2.42657e-020 -4.95415e-022
LeftArm  -39.3787 2.10213 -62.7362
LeftForeArm  -161.006 -50.7003 -11.8462
LeftHand  11.359 -32.2881 -38.2989
RightShoulder  0 2.42657e-020 1.07489e-018
RightArm  -49.4777 -20.5186 72.6154
RightForeArm  50.1207 18.2644 3.30624
RightHand  -0.487434 23.3037 -1.99394
LeftUpLeg  -10.0449 15.5043 -4.48784
LeftLeg  23.4703 5.50865 1.97535
LeftFoot  -2.80897 -0.00859388 -0.350524
LeftToes  -19.459 1.18758e-006 1.19596e-007
508
root  -37.6888 33.7472 -43.5438 -167.024 -3.78166 177.39
RightUpLeg  -30.8772 -28.4602 13.8096
RightLeg  10.5252 -11.793 -1.40017
RightFoot  6.35262 0.101712 -1.45498
RightToes  -10.2428 -0.0339928 -0.0941297
Spine  5.71502 -4.60325 -0.190085
Spine1  10.6699 -10.2102 1.03066
HEad  40.5132 -0.753127 13.1934
LeftShoulder1  0 -2.42657e-020 -4.95415e-022
LeftArm  -36.8255 -1.60639 -59.9165
LeftForeArm  -158.187 -49.9226 -11.509
LeftHand  11.3961 -31.5079 -39.334
RightShoulder  0 2.42657e-020 1.07489e-018
RightArm  -53.5323 -22.2643 73.1721
RightForeArm  52.4979 16.237 2.9102
RightHand  -0.485521 23.0557 -2.0107
LeftUpLeg  -7.80512 15.1062 -5.4896
LeftLeg  21.797 4.52823 1.47693
LeftFoot  -4.37077 -0.0153869 -0.40322
LeftToes  -16.5829 1.18758e-006 1.19596e-007
509
root  -36.9609 33.5874 -42.8734 -166.948 -7.01874 177.94
RightUpLeg  -32.4551 -30.5539 16.7304
RightLeg  10.1155 -12.2147 -1.3616
RightFoot  5.86224 0.0913822 -1.40686
RightToes  -7.15573 -0.0219827 -0.066421
Spine  5.93336 -5.44645 -0.346679
Spine1  10.9713 -12.2044 1.09359
HEad  39.3092 0.303516 14.0219
LeftShoulder1  0 -2.42657e-020 -4.95415e-022
LeftArm  -34.8528 -6.41449 -59.791
LeftForeArm  -153.874 -44.4294 -9.41574
LeftHand  11.6941 -27.6627 -45.5483
RightShoulder  0 2.42657e-020 1.07489e-018
RightArm  -58.2265 -22.3143 73.9815
RightForeArm  55.5501 14.3729 2.55157
RightHand  -0.357164 22.9985 -1.38587
LeftUpLeg  -6.6554 14.1996 -6.39779
LeftLeg  21.3301 3.26739 1.0363
LeftFoot  -6.22538 -0.0218175 -0.401211
LeftToes  -14.1988 1.18758e-006 1.19596e-007
510
root  -36.2479 33.2557 -42.1393 -166.894 -9.57321 178.583
RightUpLeg  -35.3174 -31.1073 19.3323
RightLeg  12.1191 -13.4733 -1.97366
RightFoot  4.617 0.0689689 -1.33297
RightToes  -3.82996 -0.0107342 -0.0358936
Spine  6.73604 -7.03509 -0.873747
Spine1  11.9853 -16.4997 1.53848
HEad  38.1841 2.13782 14.8175
LeftShoulder1  0 -2.42657e-020 -4.95415e-022
LeftArm  -35.3791 -11.0453 -60.3631
LeftForeArm  -147.007 -32.8999 -6.08797
LeftHand  11.9427 -23.7221 -53.3322
RightShoulder  0 2.42657e-020 1.07489e-018
RightArm  -61.7349 -19.3779 75.0917
RightForeArm  58.1333 13.212 2.32976
RightHand  -0.354751 22.952 -1.37764
LeftUpLeg  -6.963 13.5331 -7.21355
LeftLeg  23.2518 3.27597 1.16102
LeftFoot  -8.87991 -0.0433793 -0.558676
LeftToes  -13.6203 1.18758e-006 1.19596e-007
511
root  -35.5724 32.799 -41.3474 -167.021 -11.3824 179.26
RightUpLeg  -38.9799 -31.4119 21.8718
RightLeg  15.6765 -13.8431 -2.90471
RightFoot  3.01051 0.0393508 -1.1196
RightToes  -1.96632 -0.00521125 -0.0185176
Spine  7.63703 -8.47684 -1.5546
Spine1  13.3359 -20.4089 1.51597
HEad  37.3513 4.38952 15.5083
LeftShoulder1  0 -2.42657e-020 -4.95415e-022
LeftArm  -38.81 -15.0834 -60.3931
LeftForeArm  -143.932 -23.9009 -4.05951
LeftHand  12.0259 -23.6214 -53.8545
RightShoulder  0 2.42657e-020 1.07489e-018
RightArm  -62.2004 -15.507 76.8363
RightForeArm  59.7344 11.8174 2.06909
RightHand  -0.536929 22.7025 -2.30477
LeftUpLeg  -7.82642 14.5665 -7.80368
LeftLeg  26.2023 4.41608 1.82545
LeftFoot  -12.2506 -0.109391 -1.01932
LeftToes  -11.8961 1.18758e-006 1.19596e-007
